STARTFONT 2.1
FONT -DIGITAL-VT220-medium-r-Normal-80col-20-200-75-75-c-100-iso10646-1
SIZE 20 75 75
FONTBOUNDINGBOX 10 20 0 -4
STARTPROPERTIES 21
FOUNDRY "DIGITAL"
FAMILY_NAME "vt220"
WEIGHT_NAME "medium"
RELATIVE_SETWIDTH 50
SLANT "r"
SETWIDTH_NAME "Normal"
ADD_STYLE_NAME "80col"
PIXEL_SIZE 20
POINT_SIZE 200
RESOLUTION_X 75
RESOLUTION_Y 75
SPACING "c"
CHARSET_REGISTRY "ISO10646"
CHARSET_ENCODING "1"
CAP_HEIGHT 14
X_HEIGHT 10
WEIGHT 10
QUAD_WIDTH 10
FONT_ASCENT 16
FONT_DESCENT 4
AVERAGE_WIDTH 100
ENDPROPERTIES
CHARS 237
STARTCHAR U+00FD
ENCODING 253
SWIDTH 1000 0
DWIDTH 10 0
BBX 10 20 0 -4
BITMAP
0000
0000
0000
0000
0000
0000
0000
0000
0000
0000
0000
0000
0000
0000
0000
0000
0000
0000
0000
0000
ENDCHAR
STARTCHAR U+25A1
ENCODING 9633
SWIDTH 1000 0
DWIDTH 10 0
BBX 10 20 0 -4
BITMAP
0000
0000
FF00
FF00
C300
C300
C300
C300
C300
C300
C300
C300
C300
C300
FF00
FF00
0000
0000
0000
0000
ENDCHAR
STARTCHAR U+00FE
ENCODING 254
SWIDTH 1000 0
DWIDTH 10 0
BBX 10 20 0 -4
BITMAP
0000
0000
C000
C000
C000
C000
FE00
FE00
E300
E300
E300
E300
FE00
FE00
C000
C000
C000
C000
C000
C000
ENDCHAR
STARTCHAR U+00FF
ENCODING 255
SWIDTH 1000 0
DWIDTH 10 0
BBX 10 20 0 -4
BITMAP
0000
0000
6600
6600
0000
0000
C600
C600
C600
C600
CE00
CE00
7E00
7E00
0600
0600
C600
C600
7C00
7C00
ENDCHAR
STARTCHAR U+00FC
ENCODING 252
SWIDTH 1000 0
DWIDTH 10 0
BBX 10 20 0 -4
BITMAP
0000
0000
6600
6600
0000
0000
C600
C600
C600
C600
C600
C600
C600
C600
7F00
7F00
0000
0000
0000
0000
ENDCHAR
STARTCHAR U+00FB
ENCODING 251
SWIDTH 1000 0
DWIDTH 10 0
BBX 10 20 0 -4
BITMAP
3C00
3C00
6600
6600
0000
0000
C600
C600
C600
C600
C600
C600
C600
C600
7F00
7F00
0000
0000
0000
0000
ENDCHAR
STARTCHAR U+00FA
ENCODING 250
SWIDTH 1000 0
DWIDTH 10 0
BBX 10 20 0 -4
BITMAP
0000
0000
1C00
1C00
7000
7000
C600
C600
C600
C600
C600
C600
C600
C600
7F00
7F00
0000
0000
0000
0000
ENDCHAR
STARTCHAR U+00F9
ENCODING 249
SWIDTH 1000 0
DWIDTH 10 0
BBX 10 20 0 -4
BITMAP
0000
0000
7000
7000
1C00
1C00
C600
C600
C600
C600
C600
C600
C600
C600
7F00
7F00
0000
0000
0000
0000
ENDCHAR
STARTCHAR U+00F8
ENCODING 248
SWIDTH 1000 0
DWIDTH 10 0
BBX 10 20 0 -4
BITMAP
0000
0000
0000
0000
0300
0300
7E00
7E00
CF00
CF00
DB00
DB00
F300
F300
7E00
7E00
C000
C000
0000
0000
ENDCHAR
STARTCHAR U+0153
ENCODING 339
SWIDTH 1000 0
DWIDTH 10 0
BBX 10 20 0 -4
BITMAP
0000
0000
0000
0000
0000
0000
7E00
7E00
DB00
DB00
DF00
DF00
D800
D800
7F00
7F00
0000
0000
0000
0000
ENDCHAR
STARTCHAR U+00F6
ENCODING 246
SWIDTH 1000 0
DWIDTH 10 0
BBX 10 20 0 -4
BITMAP
0000
0000
6600
6600
0000
0000
7E00
7E00
C300
C300
C300
C300
C300
C300
7E00
7E00
0000
0000
0000
0000
ENDCHAR
STARTCHAR U+00F5
ENCODING 245
SWIDTH 1000 0
DWIDTH 10 0
BBX 10 20 0 -4
BITMAP
7600
7600
DC00
DC00
0000
0000
7E00
7E00
C300
C300
C300
C300
C300
C300
7E00
7E00
0000
0000
0000
0000
ENDCHAR
STARTCHAR U+00F4
ENCODING 244
SWIDTH 1000 0
DWIDTH 10 0
BBX 10 20 0 -4
BITMAP
3C00
3C00
6600
6600
0000
0000
7E00
7E00
C300
C300
C300
C300
C300
C300
7E00
7E00
0000
0000
0000
0000
ENDCHAR
STARTCHAR U+00F3
ENCODING 243
SWIDTH 1000 0
DWIDTH 10 0
BBX 10 20 0 -4
BITMAP
0000
0000
1C00
1C00
7000
7000
7E00
7E00
C300
C300
C300
C300
C300
C300
7E00
7E00
0000
0000
0000
0000
ENDCHAR
STARTCHAR U+00F2
ENCODING 242
SWIDTH 1000 0
DWIDTH 10 0
BBX 10 20 0 -4
BITMAP
0000
0000
3800
3800
0E00
0E00
7E00
7E00
C300
C300
C300
C300
C300
C300
7E00
7E00
0000
0000
0000
0000
ENDCHAR
STARTCHAR U+00F1
ENCODING 241
SWIDTH 1000 0
DWIDTH 10 0
BBX 10 20 0 -4
BITMAP
7600
7600
DC00
DC00
0000
0000
FE00
FE00
E300
E300
C300
C300
C300
C300
C300
C300
0000
0000
0000
0000
ENDCHAR
STARTCHAR U+00F0
ENCODING 240
SWIDTH 1000 0
DWIDTH 10 0
BBX 10 20 0 -4
BITMAP
1B00
1B00
0E00
0E00
1B00
1B00
7F00
7F00
C700
C700
C300
C300
C600
C600
7C00
7C00
0000
0000
0000
0000
ENDCHAR
STARTCHAR U+00EF
ENCODING 239
SWIDTH 1000 0
DWIDTH 10 0
BBX 10 20 0 -4
BITMAP
0000
0000
6600
6600
0000
0000
3800
3800
1800
1800
1800
1800
1800
1800
7E00
7E00
0000
0000
0000
0000
ENDCHAR
STARTCHAR U+00EE
ENCODING 238
SWIDTH 1000 0
DWIDTH 10 0
BBX 10 20 0 -4
BITMAP
3C00
3C00
6600
6600
0000
0000
3800
3800
1800
1800
1800
1800
1800
1800
7E00
7E00
0000
0000
0000
0000
ENDCHAR
STARTCHAR U+00ED
ENCODING 237
SWIDTH 1000 0
DWIDTH 10 0
BBX 10 20 0 -4
BITMAP
0000
0000
1C00
1C00
7000
7000
3800
3800
1800
1800
1800
1800
1800
1800
7E00
7E00
0000
0000
0000
0000
ENDCHAR
STARTCHAR U+00EC
ENCODING 236
SWIDTH 1000 0
DWIDTH 10 0
BBX 10 20 0 -4
BITMAP
0000
0000
7000
7000
1C00
1C00
3800
3800
1800
1800
1800
1800
1800
1800
7E00
7E00
0000
0000
0000
0000
ENDCHAR
STARTCHAR U+00EB
ENCODING 235
SWIDTH 1000 0
DWIDTH 10 0
BBX 10 20 0 -4
BITMAP
0000
0000
6600
6600
0000
0000
7E00
7E00
C300
C300
FF00
FF00
C000
C000
7E00
7E00
0000
0000
0000
0000
ENDCHAR
STARTCHAR U+00EA
ENCODING 234
SWIDTH 1000 0
DWIDTH 10 0
BBX 10 20 0 -4
BITMAP
3C00
3C00
6600
6600
0000
0000
7E00
7E00
C300
C300
FF00
FF00
C000
C000
7E00
7E00
0000
0000
0000
0000
ENDCHAR
STARTCHAR U+00E9
ENCODING 233
SWIDTH 1000 0
DWIDTH 10 0
BBX 10 20 0 -4
BITMAP
0000
0000
1C00
1C00
7000
7000
7E00
7E00
C300
C300
FF00
FF00
C000
C000
7E00
7E00
0000
0000
0000
0000
ENDCHAR
STARTCHAR U+00E8
ENCODING 232
SWIDTH 1000 0
DWIDTH 10 0
BBX 10 20 0 -4
BITMAP
0000
0000
3800
3800
0E00
0E00
7E00
7E00
C300
C300
FF00
FF00
C000
C000
7E00
7E00
0000
0000
0000
0000
ENDCHAR
STARTCHAR U+00E7
ENCODING 231
SWIDTH 1000 0
DWIDTH 10 0
BBX 10 20 0 -4
BITMAP
0000
0000
0000
0000
0000
0000
7E00
7E00
C300
C300
C000
C000
C300
C300
7E00
7E00
0C00
0C00
3C00
3C00
ENDCHAR
STARTCHAR U+00E6
ENCODING 230
SWIDTH 1000 0
DWIDTH 10 0
BBX 10 20 0 -4
BITMAP
0000
0000
0000
0000
0000
0000
7E00
7E00
1B00
1B00
7F00
7F00
D800
D800
7F00
7F00
0000
0000
0000
0000
ENDCHAR
STARTCHAR U+00E5
ENCODING 229
SWIDTH 1000 0
DWIDTH 10 0
BBX 10 20 0 -4
BITMAP
3C00
3C00
6600
6600
3C00
3C00
7E00
7E00
0300
0300
7F00
7F00
C700
C700
7F00
7F00
0000
0000
0000
0000
ENDCHAR
STARTCHAR U+00E4
ENCODING 228
SWIDTH 1000 0
DWIDTH 10 0
BBX 10 20 0 -4
BITMAP
0000
0000
6600
6600
0000
0000
7E00
7E00
0300
0300
7F00
7F00
C700
C700
7F00
7F00
0000
0000
0000
0000
ENDCHAR
STARTCHAR U+00E3
ENCODING 227
SWIDTH 1000 0
DWIDTH 10 0
BBX 10 20 0 -4
BITMAP
3B00
3B00
6E00
6E00
0000
0000
7E00
7E00
0300
0300
7F00
7F00
C700
C700
7F00
7F00
0000
0000
0000
0000
ENDCHAR
STARTCHAR U+00E2
ENCODING 226
SWIDTH 1000 0
DWIDTH 10 0
BBX 10 20 0 -4
BITMAP
3C00
3C00
6600
6600
0000
0000
7E00
7E00
0300
0300
7F00
7F00
C700
C700
7F00
7F00
0000
0000
0000
0000
ENDCHAR
STARTCHAR U+00E1
ENCODING 225
SWIDTH 1000 0
DWIDTH 10 0
BBX 10 20 0 -4
BITMAP
0000
0000
1C00
1C00
7000
7000
7E00
7E00
0300
0300
7F00
7F00
C700
C700
7F00
7F00
0000
0000
0000
0000
ENDCHAR
STARTCHAR U+00E0
ENCODING 224
SWIDTH 1000 0
DWIDTH 10 0
BBX 10 20 0 -4
BITMAP
0000
0000
3800
3800
0E00
0E00
7E00
7E00
0300
0300
7F00
7F00
C700
C700
7F00
7F00
0000
0000
0000
0000
ENDCHAR
STARTCHAR U+00DF
ENCODING 223
SWIDTH 1000 0
DWIDTH 10 0
BBX 10 20 0 -4
BITMAP
0000
0000
3C00
3C00
6600
6600
C600
C600
FC00
FC00
C600
C600
F300
F300
DE00
DE00
C000
C000
0000
0000
ENDCHAR
STARTCHAR U+00DE
ENCODING 222
SWIDTH 1000 0
DWIDTH 10 0
BBX 10 20 0 -4
BITMAP
0000
0000
E000
E000
7E00
7E00
6300
6300
6300
6300
6300
6300
7E00
7E00
E000
E000
0000
0000
0000
0000
ENDCHAR
STARTCHAR U+0178
ENCODING 376
SWIDTH 1000 0
DWIDTH 10 0
BBX 10 20 0 -4
BITMAP
6600
6600
0000
0000
C300
C300
6600
6600
3C00
3C00
1800
1800
1800
1800
1800
1800
0000
0000
0000
0000
ENDCHAR
STARTCHAR U+00DC
ENCODING 220
SWIDTH 1000 0
DWIDTH 10 0
BBX 10 20 0 -4
BITMAP
6600
6600
0000
0000
C300
C300
C300
C300
C300
C300
C300
C300
C300
C300
7E00
7E00
0000
0000
0000
0000
ENDCHAR
STARTCHAR U+00DB
ENCODING 219
SWIDTH 1000 0
DWIDTH 10 0
BBX 10 20 0 -4
BITMAP
1800
1800
3C00
3C00
C300
C300
C300
C300
C300
C300
C300
C300
C300
C300
7E00
7E00
0000
0000
0000
0000
ENDCHAR
STARTCHAR U+00DA
ENCODING 218
SWIDTH 1000 0
DWIDTH 10 0
BBX 10 20 0 -4
BITMAP
0E00
0E00
3800
3800
C300
C300
C300
C300
C300
C300
C300
C300
C300
C300
7E00
7E00
0000
0000
0000
0000
ENDCHAR
STARTCHAR U+00D9
ENCODING 217
SWIDTH 1000 0
DWIDTH 10 0
BBX 10 20 0 -4
BITMAP
7000
7000
1C00
1C00
C300
C300
C300
C300
C300
C300
C300
C300
C300
C300
7E00
7E00
0000
0000
0000
0000
ENDCHAR
STARTCHAR U+00D8
ENCODING 216
SWIDTH 1000 0
DWIDTH 10 0
BBX 10 20 0 -4
BITMAP
0300
0300
7E00
7E00
C700
C700
CF00
CF00
DB00
DB00
F300
F300
E300
E300
7E00
7E00
C000
C000
0000
0000
ENDCHAR
STARTCHAR U+0152
ENCODING 338
SWIDTH 1000 0
DWIDTH 10 0
BBX 10 20 0 -4
BITMAP
0000
0000
7F00
7F00
D800
D800
D800
D800
DE00
DE00
D800
D800
D800
D800
7F00
7F00
0000
0000
0000
0000
ENDCHAR
STARTCHAR U+00D6
ENCODING 214
SWIDTH 1000 0
DWIDTH 10 0
BBX 10 20 0 -4
BITMAP
6600
6600
0000
0000
7E00
7E00
C300
C300
C300
C300
C300
C300
C300
C300
7E00
7E00
0000
0000
0000
0000
ENDCHAR
STARTCHAR U+00D5
ENCODING 213
SWIDTH 1000 0
DWIDTH 10 0
BBX 10 20 0 -4
BITMAP
7600
7600
DC00
DC00
7E00
7E00
C300
C300
C300
C300
C300
C300
C300
C300
7E00
7E00
0000
0000
0000
0000
ENDCHAR
STARTCHAR U+00D4
ENCODING 212
SWIDTH 1000 0
DWIDTH 10 0
BBX 10 20 0 -4
BITMAP
3C00
3C00
6600
6600
7E00
7E00
C300
C300
C300
C300
C300
C300
C300
C300
7E00
7E00
0000
0000
0000
0000
ENDCHAR
STARTCHAR U+00D3
ENCODING 211
SWIDTH 1000 0
DWIDTH 10 0
BBX 10 20 0 -4
BITMAP
1C00
1C00
7000
7000
7E00
7E00
C300
C300
C300
C300
C300
C300
C300
C300
7E00
7E00
0000
0000
0000
0000
ENDCHAR
STARTCHAR U+00D2
ENCODING 210
SWIDTH 1000 0
DWIDTH 10 0
BBX 10 20 0 -4
BITMAP
3800
3800
0E00
0E00
7E00
7E00
C300
C300
C300
C300
C300
C300
C300
C300
7E00
7E00
0000
0000
0000
0000
ENDCHAR
STARTCHAR U+00D1
ENCODING 209
SWIDTH 1000 0
DWIDTH 10 0
BBX 10 20 0 -4
BITMAP
3B00
3B00
6E00
6E00
E300
E300
F300
F300
DB00
DB00
CF00
CF00
C700
C700
C300
C300
0000
0000
0000
0000
ENDCHAR
STARTCHAR U+00D0
ENCODING 208
SWIDTH 1000 0
DWIDTH 10 0
BBX 10 20 0 -4
BITMAP
0000
0000
FC00
FC00
6600
6600
6300
6300
FB00
FB00
6300
6300
6600
6600
FC00
FC00
0000
0000
0000
0000
ENDCHAR
STARTCHAR U+00CF
ENCODING 207
SWIDTH 1000 0
DWIDTH 10 0
BBX 10 20 0 -4
BITMAP
6600
6600
0000
0000
7E00
7E00
1800
1800
1800
1800
1800
1800
1800
1800
7E00
7E00
0000
0000
0000
0000
ENDCHAR
STARTCHAR U+00CE
ENCODING 206
SWIDTH 1000 0
DWIDTH 10 0
BBX 10 20 0 -4
BITMAP
3C00
3C00
6600
6600
7E00
7E00
1800
1800
1800
1800
1800
1800
1800
1800
7E00
7E00
0000
0000
0000
0000
ENDCHAR
STARTCHAR U+00CD
ENCODING 205
SWIDTH 1000 0
DWIDTH 10 0
BBX 10 20 0 -4
BITMAP
1C00
1C00
7000
7000
7E00
7E00
1800
1800
1800
1800
1800
1800
1800
1800
7E00
7E00
0000
0000
0000
0000
ENDCHAR
STARTCHAR U+00CC
ENCODING 204
SWIDTH 1000 0
DWIDTH 10 0
BBX 10 20 0 -4
BITMAP
3800
3800
0E00
0E00
7E00
7E00
1800
1800
1800
1800
1800
1800
1800
1800
7E00
7E00
0000
0000
0000
0000
ENDCHAR
STARTCHAR U+00CB
ENCODING 203
SWIDTH 1000 0
DWIDTH 10 0
BBX 10 20 0 -4
BITMAP
6600
6600
0000
0000
FF00
FF00
C000
C000
FC00
FC00
C000
C000
C000
C000
FF00
FF00
0000
0000
0000
0000
ENDCHAR
STARTCHAR U+00CA
ENCODING 202
SWIDTH 1000 0
DWIDTH 10 0
BBX 10 20 0 -4
BITMAP
3C00
3C00
6600
6600
FF00
FF00
C000
C000
F800
F800
C000
C000
C000
C000
FF00
FF00
0000
0000
0000
0000
ENDCHAR
STARTCHAR U+00C9
ENCODING 201
SWIDTH 1000 0
DWIDTH 10 0
BBX 10 20 0 -4
BITMAP
0E00
0E00
3800
3800
FF00
FF00
C000
C000
FC00
FC00
C000
C000
C000
C000
FF00
FF00
0000
0000
0000
0000
ENDCHAR
STARTCHAR U+00C8
ENCODING 200
SWIDTH 1000 0
DWIDTH 10 0
BBX 10 20 0 -4
BITMAP
7000
7000
1C00
1C00
FF00
FF00
C000
C000
FC00
FC00
C000
C000
C000
C000
FF00
FF00
0000
0000
0000
0000
ENDCHAR
STARTCHAR U+00C7
ENCODING 199
SWIDTH 1000 0
DWIDTH 10 0
BBX 10 20 0 -4
BITMAP
0000
0000
3E00
3E00
6300
6300
C000
C000
C000
C000
C000
C000
6300
6300
3E00
3E00
0C00
0C00
3C00
3C00
ENDCHAR
STARTCHAR U+00C6
ENCODING 198
SWIDTH 1000 0
DWIDTH 10 0
BBX 10 20 0 -4
BITMAP
0000
0000
3F00
3F00
7800
7800
D800
D800
DE00
DE00
F800
F800
D800
D800
DF00
DF00
0000
0000
0000
0000
ENDCHAR
STARTCHAR U+00C5
ENCODING 197
SWIDTH 1000 0
DWIDTH 10 0
BBX 10 20 0 -4
BITMAP
3C00
3C00
6600
6600
3C00
3C00
3C00
3C00
6600
6600
FF00
FF00
C300
C300
C300
C300
0000
0000
0000
0000
ENDCHAR
STARTCHAR U+00C4
ENCODING 196
SWIDTH 1000 0
DWIDTH 10 0
BBX 10 20 0 -4
BITMAP
6600
6600
0000
0000
1800
1800
3C00
3C00
6600
6600
FF00
FF00
C300
C300
C300
C300
0000
0000
0000
0000
ENDCHAR
STARTCHAR U+00C3
ENCODING 195
SWIDTH 1000 0
DWIDTH 10 0
BBX 10 20 0 -4
BITMAP
3B00
3B00
6E00
6E00
1800
1800
3C00
3C00
6600
6600
FF00
FF00
C300
C300
C300
C300
0000
0000
0000
0000
ENDCHAR
STARTCHAR U+00C2
ENCODING 194
SWIDTH 1000 0
DWIDTH 10 0
BBX 10 20 0 -4
BITMAP
3C00
3C00
6600
6600
1800
1800
3C00
3C00
6600
6600
FF00
FF00
C300
C300
C300
C300
0000
0000
0000
0000
ENDCHAR
STARTCHAR U+00C1
ENCODING 193
SWIDTH 1000 0
DWIDTH 10 0
BBX 10 20 0 -4
BITMAP
1C00
1C00
7000
7000
1800
1800
3C00
3C00
6600
6600
FF00
FF00
C300
C300
C300
C300
0000
0000
0000
0000
ENDCHAR
STARTCHAR U+00C0
ENCODING 192
SWIDTH 1000 0
DWIDTH 10 0
BBX 10 20 0 -4
BITMAP
3800
3800
0E00
0E00
1800
1800
3C00
3C00
6600
6600
FF00
FF00
C300
C300
C300
C300
0000
0000
0000
0000
ENDCHAR
STARTCHAR U+00BF
ENCODING 191
SWIDTH 1000 0
DWIDTH 10 0
BBX 10 20 0 -4
BITMAP
0000
0000
1800
1800
0000
0000
1800
1800
1800
1800
7000
7000
C300
C300
7E00
7E00
0000
0000
0000
0000
ENDCHAR
STARTCHAR U+00BE
ENCODING 190
SWIDTH 1000 0
DWIDTH 10 0
BBX 10 20 0 -4
BITMAP
F800
F800
1800
1800
7600
7600
1C00
1C00
F800
F800
3600
3600
6E00
6E00
DE00
DE00
3F00
3F00
0600
0600
ENDCHAR
STARTCHAR U+00BD
ENCODING 189
SWIDTH 1000 0
DWIDTH 10 0
BBX 10 20 0 -4
BITMAP
0000
0000
6000
6000
E600
E600
6C00
6C00
7800
7800
3E00
3E00
7B00
7B00
C600
C600
0C00
0C00
1F00
1F00
ENDCHAR
STARTCHAR U+00BC
ENCODING 188
SWIDTH 1000 0
DWIDTH 10 0
BBX 10 20 0 -4
BITMAP
0000
0000
6000
6000
E600
E600
6C00
6C00
7800
7800
3600
3600
6E00
6E00
DE00
DE00
3F00
3F00
0600
0600
ENDCHAR
STARTCHAR U+00BB
ENCODING 187
SWIDTH 1000 0
DWIDTH 10 0
BBX 10 20 0 -4
BITMAP
0000
0000
D800
D800
6C00
6C00
3600
3600
1B00
1B00
3600
3600
6C00
6C00
D800
D800
0000
0000
0000
0000
ENDCHAR
STARTCHAR U+00BA
ENCODING 186
SWIDTH 1000 0
DWIDTH 10 0
BBX 10 20 0 -4
BITMAP
0000
0000
7E00
7E00
C300
C300
C300
C300
C300
C300
7E00
7E00
0000
0000
FF00
FF00
0000
0000
0000
0000
ENDCHAR
STARTCHAR U+00B9
ENCODING 185
SWIDTH 1000 0
DWIDTH 10 0
BBX 10 20 0 -4
BITMAP
1800
1800
3800
3800
1800
1800
1800
1800
3C00
3C00
0000
0000
0000
0000
0000
0000
0000
0000
0000
0000
ENDCHAR
STARTCHAR U+00B8
ENCODING 184
SWIDTH 1000 0
DWIDTH 10 0
BBX 10 20 0 -4
BITMAP
0000
0000
0000
0000
0000
0000
0000
0000
0000
0000
0000
0000
0000
0000
0000
0000
0C00
0C00
3C00
3C00
ENDCHAR
STARTCHAR U+2022
ENCODING 8226
SWIDTH 1000 0
DWIDTH 10 0
BBX 10 20 0 -4
BITMAP
0000
0000
0000
0000
0000
0000
3800
3800
3800
3800
0000
0000
0000
0000
0000
0000
0000
0000
0000
0000
ENDCHAR
STARTCHAR U+00B6
ENCODING 182
SWIDTH 1000 0
DWIDTH 10 0
BBX 10 20 0 -4
BITMAP
0000
0000
7F00
7F00
EF00
EF00
EF00
EF00
7F00
7F00
0F00
0F00
0F00
0F00
0F00
0F00
0000
0000
0000
0000
ENDCHAR
STARTCHAR U+00B5
ENCODING 181
SWIDTH 1000 0
DWIDTH 10 0
BBX 10 20 0 -4
BITMAP
0000
0000
0000
0000
0000
0000
6300
6300
6300
6300
6300
6300
7700
7700
7F00
7F00
6000
6000
C000
C000
ENDCHAR
STARTCHAR U+00B4
ENCODING 180
SWIDTH 1000 0
DWIDTH 10 0
BBX 10 20 0 -4
BITMAP
0000
0000
0E00
0E00
0C00
0C00
1800
1800
0000
0000
0000
0000
0000
0000
0000
0000
0000
0000
0000
0000
ENDCHAR
STARTCHAR U+00B3
ENCODING 179
SWIDTH 1000 0
DWIDTH 10 0
BBX 10 20 0 -4
BITMAP
7E00
7E00
0600
0600
1C00
1C00
0600
0600
7C00
7C00
0000
0000
0000
0000
0000
0000
0000
0000
0000
0000
ENDCHAR
STARTCHAR U+00B2
ENCODING 178
SWIDTH 1000 0
DWIDTH 10 0
BBX 10 20 0 -4
BITMAP
3C00
3C00
6600
6600
1C00
1C00
3000
3000
7E00
7E00
0000
0000
0000
0000
0000
0000
0000
0000
0000
0000
ENDCHAR
STARTCHAR U+00AF
ENCODING 175
SWIDTH 1000 0
DWIDTH 10 0
BBX 10 20 0 -4
BITMAP
7E00
7E00
0000
0000
0000
0000
0000
0000
0000
0000
0000
0000
0000
0000
0000
0000
0000
0000
0000
0000
ENDCHAR
STARTCHAR U+00AE
ENCODING 174
SWIDTH 1000 0
DWIDTH 10 0
BBX 10 20 0 -4
BITMAP
0000
0000
3C00
3C00
6600
6600
FF00
FF00
F700
F700
FF00
FF00
FB00
FB00
7E00
7E00
3C00
3C00
0000
0000
ENDCHAR
STARTCHAR U+00D7
ENCODING 215
SWIDTH 1000 0
DWIDTH 10 0
BBX 10 20 0 -4
BITMAP
0000
0000
0000
0000
6600
6600
3C00
3C00
1800
1800
3C00
3C00
6600
6600
0000
0000
0000
0000
0000
0000
ENDCHAR
STARTCHAR U+00AC
ENCODING 172
SWIDTH 1000 0
DWIDTH 10 0
BBX 10 20 0 -4
BITMAP
0000
0000
0000
0000
0000
0000
0000
0000
0000
0000
FF00
FF00
0300
0300
0300
0300
0000
0000
0000
0000
ENDCHAR
STARTCHAR U+00AB
ENCODING 171
SWIDTH 1000 0
DWIDTH 10 0
BBX 10 20 0 -4
BITMAP
0000
0000
1B00
1B00
3600
3600
6C00
6C00
D800
D800
6C00
6C00
3600
3600
1B00
1B00
0000
0000
0000
0000
ENDCHAR
STARTCHAR U+00AA
ENCODING 170
SWIDTH 1000 0
DWIDTH 10 0
BBX 10 20 0 -4
BITMAP
0000
0000
7E00
7E00
0300
0300
7F00
7F00
C700
C700
7F00
7F00
0000
0000
FF00
FF00
0000
0000
0000
0000
ENDCHAR
STARTCHAR U+00A9
ENCODING 169
SWIDTH 1000 0
DWIDTH 10 0
BBX 10 20 0 -4
BITMAP
0000
0000
3C00
3C00
6600
6600
DF00
DF00
F300
F300
F300
F300
DF00
DF00
6600
6600
3C00
3C00
0000
0000
ENDCHAR
STARTCHAR U+00A4
ENCODING 164
SWIDTH 1000 0
DWIDTH 10 0
BBX 10 20 0 -4
BITMAP
0000
0000
0000
0000
C300
C300
7E00
7E00
6600
6600
7E00
7E00
C300
C300
0000
0000
0000
0000
0000
0000
ENDCHAR
STARTCHAR U+00A7
ENCODING 167
SWIDTH 1000 0
DWIDTH 10 0
BBX 10 20 0 -4
BITMAP
0000
0000
3E00
3E00
6000
6000
3C00
3C00
6600
6600
3C00
3C00
0600
0600
7C00
7C00
0000
0000
0000
0000
ENDCHAR
STARTCHAR U+00A6
ENCODING 166
SWIDTH 1000 0
DWIDTH 10 0
BBX 10 20 0 -4
BITMAP
0000
0000
1800
1800
1800
1800
1800
1800
0000
0000
1800
1800
1800
1800
1800
1800
0000
0000
0000
0000
ENDCHAR
STARTCHAR U+00A5
ENCODING 165
SWIDTH 1000 0
DWIDTH 10 0
BBX 10 20 0 -4
BITMAP
0000
0000
C300
C300
6600
6600
3C00
3C00
1800
1800
FF00
FF00
1800
1800
1800
1800
0000
0000
0000
0000
ENDCHAR
STARTCHAR U+00A8
ENCODING 168
SWIDTH 1000 0
DWIDTH 10 0
BBX 10 20 0 -4
BITMAP
6600
6600
0000
0000
0000
0000
0000
0000
0000
0000
0000
0000
0000
0000
0000
0000
0000
0000
0000
0000
ENDCHAR
STARTCHAR U+00A2
ENCODING 162
SWIDTH 1000 0
DWIDTH 10 0
BBX 10 20 0 -4
BITMAP
0000
0000
0000
0000
1800
1800
7E00
7E00
DB00
DB00
D800
D800
DB00
DB00
7E00
7E00
1800
1800
0000
0000
ENDCHAR
STARTCHAR U+00A1
ENCODING 161
SWIDTH 1000 0
DWIDTH 10 0
BBX 10 20 0 -4
BITMAP
0000
0000
1800
1800
0000
0000
1800
1800
1800
1800
1800
1800
1800
1800
1800
1800
0000
0000
0000
0000
ENDCHAR
STARTCHAR U+201F
ENCODING 8223
SWIDTH 1000 0
DWIDTH 10 0
BBX 10 20 0 -4
BITMAP
0000
0000
7E00
7E00
6C00
6C00
3600
3600
0000
0000
0000
0000
0000
0000
0000
0000
0000
0000
0000
0000
ENDCHAR
STARTCHAR U+201E
ENCODING 8222
SWIDTH 1000 0
DWIDTH 10 0
BBX 10 20 0 -4
BITMAP
0000
0000
0000
0000
0000
0000
0000
0000
0000
0000
0000
0000
0000
0000
6C00
6C00
6C00
6C00
0000
0000
ENDCHAR
STARTCHAR U+201D
ENCODING 8221
SWIDTH 1000 0
DWIDTH 10 0
BBX 10 20 0 -4
BITMAP
0000
0000
7700
7700
3300
3300
6600
6600
0000
0000
0000
0000
0000
0000
0000
0000
0000
0000
0000
0000
ENDCHAR
STARTCHAR U+201C
ENCODING 8220
SWIDTH 1000 0
DWIDTH 10 0
BBX 10 20 0 -4
BITMAP
0000
0000
3300
3300
6600
6600
7700
7700
0000
0000
0000
0000
0000
0000
0000
0000
0000
0000
0000
0000
ENDCHAR
STARTCHAR U+201B
ENCODING 8219
SWIDTH 1000 0
DWIDTH 10 0
BBX 10 20 0 -4
BITMAP
0000
0000
1800
1800
1800
1800
1800
1800
0000
0000
0000
0000
0000
0000
0000
0000
0000
0000
0000
0000
ENDCHAR
STARTCHAR U+201A
ENCODING 8218
SWIDTH 1000 0
DWIDTH 10 0
BBX 10 20 0 -4
BITMAP
0000
0000
0000
0000
0000
0000
0000
0000
0000
0000
1800
1800
1800
1800
1800
1800
0000
0000
0000
0000
ENDCHAR
STARTCHAR U+2019
ENCODING 8217
SWIDTH 1000 0
DWIDTH 10 0
BBX 10 20 0 -4
BITMAP
0000
0000
7000
7000
3000
3000
6000
6000
0000
0000
0000
0000
0000
0000
0000
0000
0000
0000
0000
0000
ENDCHAR
STARTCHAR U+2018
ENCODING 8216
SWIDTH 1000 0
DWIDTH 10 0
BBX 10 20 0 -4
BITMAP
0000
0000
0300
0300
0600
0600
0700
0700
0000
0000
0000
0000
0000
0000
0000
0000
0000
0000
0000
0000
ENDCHAR
STARTCHAR U+2017
ENCODING 8215
SWIDTH 1000 0
DWIDTH 10 0
BBX 10 20 0 -4
BITMAP
0000
0000
0000
0000
0000
0000
0000
0000
0000
0000
0000
0000
0000
0000
FF00
FF00
0000
0000
FF00
FF00
ENDCHAR
STARTCHAR U+2016
ENCODING 8214
SWIDTH 1000 0
DWIDTH 10 0
BBX 10 20 0 -4
BITMAP
0000
0000
1E00
1E00
1E00
1E00
1E00
1E00
1E00
1E00
1E00
1E00
1E00
1E00
1E00
1E00
0000
0000
0000
0000
ENDCHAR
STARTCHAR U+2015
ENCODING 8213
SWIDTH 1000 0
DWIDTH 10 0
BBX 10 20 0 -4
BITMAP
0000
0000
0000
0000
0000
0000
0000
0000
FFC0
FFC0
0000
0000
0000
0000
0000
0000
0000
0000
0000
0000
ENDCHAR
STARTCHAR U+2014
ENCODING 8212
SWIDTH 1000 0
DWIDTH 10 0
BBX 10 20 0 -4
BITMAP
0000
0000
0000
0000
0000
0000
0000
0000
FF00
FF00
0000
0000
0000
0000
0000
0000
0000
0000
0000
0000
ENDCHAR
STARTCHAR U+2013
ENCODING 8211
SWIDTH 1000 0
DWIDTH 10 0
BBX 10 20 0 -4
BITMAP
0000
0000
0000
0000
0000
0000
0000
0000
3E00
3E00
0000
0000
0000
0000
0000
0000
0000
0000
0000
0000
ENDCHAR
STARTCHAR U+2012
ENCODING 8210
SWIDTH 1000 0
DWIDTH 10 0
BBX 10 20 0 -4
BITMAP
0000
0000
0000
0000
0000
0000
0000
0000
7E00
7E00
0000
0000
0000
0000
0000
0000
0000
0000
0000
0000
ENDCHAR
STARTCHAR U+2011
ENCODING 8209
SWIDTH 1000 0
DWIDTH 10 0
BBX 10 20 0 -4
BITMAP
0000
0000
0000
0000
0000
0000
0000
0000
3C00
3C00
0000
0000
0000
0000
0000
0000
0000
0000
0000
0000
ENDCHAR
STARTCHAR U+2010
ENCODING 8208
SWIDTH 1000 0
DWIDTH 10 0
BBX 10 20 0 -4
BITMAP
0000
0000
0000
0000
0000
0000
0000
0000
3C00
3C00
0000
0000
0000
0000
0000
0000
0000
0000
0000
0000
ENDCHAR
STARTCHAR U+007F
ENCODING 127
SWIDTH 1000 0
DWIDTH 10 0
BBX 10 20 0 -4
BITMAP
0000
0000
F000
F000
D800
D800
D800
D800
D800
D800
FC00
FC00
3000
3000
3000
3000
3000
3000
3000
3000
ENDCHAR
STARTCHAR U+007E
ENCODING 126
SWIDTH 1000 0
DWIDTH 10 0
BBX 10 20 0 -4
BITMAP
0000
0000
7300
7300
DB00
DB00
CE00
CE00
0000
0000
0000
0000
0000
0000
0000
0000
0000
0000
0000
0000
ENDCHAR
STARTCHAR U+007D
ENCODING 125
SWIDTH 1000 0
DWIDTH 10 0
BBX 10 20 0 -4
BITMAP
0000
0000
F000
F000
1800
1800
3000
3000
1C00
1C00
3000
3000
1800
1800
F000
F000
0000
0000
0000
0000
ENDCHAR
STARTCHAR U+007C
ENCODING 124
SWIDTH 1000 0
DWIDTH 10 0
BBX 10 20 0 -4
BITMAP
0000
0000
1800
1800
1800
1800
1800
1800
1800
1800
1800
1800
1800
1800
1800
1800
0000
0000
0000
0000
ENDCHAR
STARTCHAR U+007B
ENCODING 123
SWIDTH 1000 0
DWIDTH 10 0
BBX 10 20 0 -4
BITMAP
0000
0000
0F00
0F00
1800
1800
0C00
0C00
3800
3800
0C00
0C00
1800
1800
0F00
0F00
0000
0000
0000
0000
ENDCHAR
STARTCHAR U+007A
ENCODING 122
SWIDTH 1000 0
DWIDTH 10 0
BBX 10 20 0 -4
BITMAP
0000
0000
0000
0000
0000
0000
FF00
FF00
0600
0600
1C00
1C00
3000
3000
FF00
FF00
0000
0000
0000
0000
ENDCHAR
STARTCHAR U+0079
ENCODING 121
SWIDTH 1000 0
DWIDTH 10 0
BBX 10 20 0 -4
BITMAP
0000
0000
0000
0000
0000
0000
C600
C600
C600
C600
CE00
CE00
7E00
7E00
0600
0600
C600
C600
7C00
7C00
ENDCHAR
STARTCHAR U+0078
ENCODING 120
SWIDTH 1000 0
DWIDTH 10 0
BBX 10 20 0 -4
BITMAP
0000
0000
0000
0000
0000
0000
C600
C600
6C00
6C00
3800
3800
6C00
6C00
C600
C600
0000
0000
0000
0000
ENDCHAR
STARTCHAR U+0077
ENCODING 119
SWIDTH 1000 0
DWIDTH 10 0
BBX 10 20 0 -4
BITMAP
0000
0000
0000
0000
0000
0000
C300
C300
C300
C300
DB00
DB00
FF00
FF00
6600
6600
0000
0000
0000
0000
ENDCHAR
STARTCHAR U+0076
ENCODING 118
SWIDTH 1000 0
DWIDTH 10 0
BBX 10 20 0 -4
BITMAP
0000
0000
0000
0000
0000
0000
C300
C300
C300
C300
6600
6600
3C00
3C00
1800
1800
0000
0000
0000
0000
ENDCHAR
STARTCHAR U+0075
ENCODING 117
SWIDTH 1000 0
DWIDTH 10 0
BBX 10 20 0 -4
BITMAP
0000
0000
0000
0000
0000
0000
C600
C600
C600
C600
C600
C600
C600
C600
7F00
7F00
0000
0000
0000
0000
ENDCHAR
STARTCHAR U+0074
ENCODING 116
SWIDTH 1000 0
DWIDTH 10 0
BBX 10 20 0 -4
BITMAP
0000
0000
3000
3000
3000
3000
FC00
FC00
3000
3000
3000
3000
3600
3600
1C00
1C00
0000
0000
0000
0000
ENDCHAR
STARTCHAR U+0073
ENCODING 115
SWIDTH 1000 0
DWIDTH 10 0
BBX 10 20 0 -4
BITMAP
0000
0000
0000
0000
0000
0000
7E00
7E00
C000
C000
7E00
7E00
0300
0300
FE00
FE00
0000
0000
0000
0000
ENDCHAR
STARTCHAR U+0072
ENCODING 114
SWIDTH 1000 0
DWIDTH 10 0
BBX 10 20 0 -4
BITMAP
0000
0000
0000
0000
0000
0000
DE00
DE00
7300
7300
6000
6000
6000
6000
6000
6000
0000
0000
0000
0000
ENDCHAR
STARTCHAR U+0071
ENCODING 113
SWIDTH 1000 0
DWIDTH 10 0
BBX 10 20 0 -4
BITMAP
0000
0000
0000
0000
0000
0000
7F00
7F00
C700
C700
C700
C700
7F00
7F00
0300
0300
0300
0300
0300
0300
ENDCHAR
STARTCHAR U+0070
ENCODING 112
SWIDTH 1000 0
DWIDTH 10 0
BBX 10 20 0 -4
BITMAP
0000
0000
0000
0000
0000
0000
FE00
FE00
E300
E300
E300
E300
FE00
FE00
C000
C000
C000
C000
C000
C000
ENDCHAR
STARTCHAR U+006f
ENCODING 111
SWIDTH 1000 0
DWIDTH 10 0
BBX 10 20 0 -4
BITMAP
0000
0000
0000
0000
0000
0000
7E00
7E00
C300
C300
C300
C300
C300
C300
7E00
7E00
0000
0000
0000
0000
ENDCHAR
STARTCHAR U+006e
ENCODING 110
SWIDTH 1000 0
DWIDTH 10 0
BBX 10 20 0 -4
BITMAP
0000
0000
0000
0000
0000
0000
FE00
FE00
E300
E300
C300
C300
C300
C300
C300
C300
0000
0000
0000
0000
ENDCHAR
STARTCHAR U+006d
ENCODING 109
SWIDTH 1000 0
DWIDTH 10 0
BBX 10 20 0 -4
BITMAP
0000
0000
0000
0000
0000
0000
E600
E600
FF00
FF00
DB00
DB00
DB00
DB00
C300
C300
0000
0000
0000
0000
ENDCHAR
STARTCHAR U+006c
ENCODING 108
SWIDTH 1000 0
DWIDTH 10 0
BBX 10 20 0 -4
BITMAP
0000
0000
3800
3800
1800
1800
1800
1800
1800
1800
1800
1800
1800
1800
3C00
3C00
0000
0000
0000
0000
ENDCHAR
STARTCHAR U+006b
ENCODING 107
SWIDTH 1000 0
DWIDTH 10 0
BBX 10 20 0 -4
BITMAP
0000
0000
C000
C000
C000
C000
CC00
CC00
D800
D800
F000
F000
CC00
CC00
C300
C300
0000
0000
0000
0000
ENDCHAR
STARTCHAR U+006a
ENCODING 106
SWIDTH 1000 0
DWIDTH 10 0
BBX 10 20 0 -4
BITMAP
0000
0000
0600
0600
0000
0000
0600
0600
0600
0600
0600
0600
0600
0600
C600
C600
C600
C600
7C00
7C00
ENDCHAR
STARTCHAR U+0069
ENCODING 105
SWIDTH 1000 0
DWIDTH 10 0
BBX 10 20 0 -4
BITMAP
0000
0000
1800
1800
0000
0000
3800
3800
1800
1800
1800
1800
1800
1800
7E00
7E00
0000
0000
0000
0000
ENDCHAR
STARTCHAR U+0068
ENCODING 104
SWIDTH 1000 0
DWIDTH 10 0
BBX 10 20 0 -4
BITMAP
0000
0000
C000
C000
C000
C000
FE00
FE00
E300
E300
C300
C300
C300
C300
C300
C300
0000
0000
0000
0000
ENDCHAR
STARTCHAR U+0067
ENCODING 103
SWIDTH 1000 0
DWIDTH 10 0
BBX 10 20 0 -4
BITMAP
0000
0000
0000
0000
0000
0000
7F00
7F00
C600
C600
7C00
7C00
C000
C000
7E00
7E00
C300
C300
7E00
7E00
ENDCHAR
STARTCHAR U+0066
ENCODING 102
SWIDTH 1000 0
DWIDTH 10 0
BBX 10 20 0 -4
BITMAP
0000
0000
1E00
1E00
3300
3300
3000
3000
FC00
FC00
3000
3000
3000
3000
3000
3000
0000
0000
0000
0000
ENDCHAR
STARTCHAR U+0065
ENCODING 101
SWIDTH 1000 0
DWIDTH 10 0
BBX 10 20 0 -4
BITMAP
0000
0000
0000
0000
0000
0000
7E00
7E00
C300
C300
FF00
FF00
C000
C000
7E00
7E00
0000
0000
0000
0000
ENDCHAR
STARTCHAR U+0064
ENCODING 100
SWIDTH 1000 0
DWIDTH 10 0
BBX 10 20 0 -4
BITMAP
0000
0000
0300
0300
0300
0300
7F00
7F00
C700
C700
C300
C300
C700
C700
7F00
7F00
0000
0000
0000
0000
ENDCHAR
STARTCHAR U+0063
ENCODING 99
SWIDTH 1000 0
DWIDTH 10 0
BBX 10 20 0 -4
BITMAP
0000
0000
0000
0000
0000
0000
7E00
7E00
C300
C300
C000
C000
C000
C000
7F00
7F00
0000
0000
0000
0000
ENDCHAR
STARTCHAR U+0062
ENCODING 98
SWIDTH 1000 0
DWIDTH 10 0
BBX 10 20 0 -4
BITMAP
0000
0000
C000
C000
C000
C000
FE00
FE00
E300
E300
C300
C300
E300
E300
FE00
FE00
0000
0000
0000
0000
ENDCHAR
STARTCHAR U+0061
ENCODING 97
SWIDTH 1000 0
DWIDTH 10 0
BBX 10 20 0 -4
BITMAP
0000
0000
0000
0000
0000
0000
7E00
7E00
0300
0300
7F00
7F00
C700
C700
7F00
7F00
0000
0000
0000
0000
ENDCHAR
STARTCHAR U+0060
ENCODING 96
SWIDTH 1000 0
DWIDTH 10 0
BBX 10 20 0 -4
BITMAP
0000
0000
3800
3800
1800
1800
0C00
0C00
0000
0000
0000
0000
0000
0000
0000
0000
0000
0000
0000
0000
ENDCHAR
STARTCHAR U+005F
ENCODING 95
SWIDTH 1000 0
DWIDTH 10 0
BBX 10 20 0 -4
BITMAP
0000
0000
0000
0000
0000
0000
0000
0000
0000
0000
0000
0000
0000
0000
FF00
FF00
0000
0000
0000
0000
ENDCHAR
STARTCHAR U+005E
ENCODING 94
SWIDTH 1000 0
DWIDTH 10 0
BBX 10 20 0 -4
BITMAP
0000
0000
1800
1800
3C00
3C00
6600
6600
C300
C300
0000
0000
0000
0000
0000
0000
0000
0000
0000
0000
ENDCHAR
STARTCHAR U+005D
ENCODING 93
SWIDTH 1000 0
DWIDTH 10 0
BBX 10 20 0 -4
BITMAP
0000
0000
7C00
7C00
0C00
0C00
0C00
0C00
0C00
0C00
0C00
0C00
0C00
0C00
7C00
7C00
0000
0000
0000
0000
ENDCHAR
STARTCHAR U+005C
ENCODING 92
SWIDTH 1000 0
DWIDTH 10 0
BBX 10 20 0 -4
BITMAP
0000
0000
C000
C000
6000
6000
3000
3000
1800
1800
0C00
0C00
0600
0600
0300
0300
0000
0000
0000
0000
ENDCHAR
STARTCHAR U+005B
ENCODING 91
SWIDTH 1000 0
DWIDTH 10 0
BBX 10 20 0 -4
BITMAP
0000
0000
3E00
3E00
3000
3000
3000
3000
3000
3000
3000
3000
3000
3000
3E00
3E00
0000
0000
0000
0000
ENDCHAR
STARTCHAR U+005A
ENCODING 90
SWIDTH 1000 0
DWIDTH 10 0
BBX 10 20 0 -4
BITMAP
0000
0000
FF00
FF00
0600
0600
0C00
0C00
1800
1800
3000
3000
6000
6000
FF00
FF00
0000
0000
0000
0000
ENDCHAR
STARTCHAR U+0059
ENCODING 89
SWIDTH 1000 0
DWIDTH 10 0
BBX 10 20 0 -4
BITMAP
0000
0000
C300
C300
6600
6600
3C00
3C00
1800
1800
1800
1800
1800
1800
1800
1800
0000
0000
0000
0000
ENDCHAR
STARTCHAR U+0058
ENCODING 88
SWIDTH 1000 0
DWIDTH 10 0
BBX 10 20 0 -4
BITMAP
0000
0000
C300
C300
6600
6600
3C00
3C00
1800
1800
3C00
3C00
6600
6600
C300
C300
0000
0000
0000
0000
ENDCHAR
STARTCHAR U+0057
ENCODING 87
SWIDTH 1000 0
DWIDTH 10 0
BBX 10 20 0 -4
BITMAP
0000
0000
C300
C300
C300
C300
C300
C300
DB00
DB00
DB00
DB00
FF00
FF00
6600
6600
0000
0000
0000
0000
ENDCHAR
STARTCHAR U+0056
ENCODING 86
SWIDTH 1000 0
DWIDTH 10 0
BBX 10 20 0 -4
BITMAP
0000
0000
C300
C300
C300
C300
6600
6600
6600
6600
3C00
3C00
3C00
3C00
1800
1800
0000
0000
0000
0000
ENDCHAR
STARTCHAR U+0055
ENCODING 85
SWIDTH 1000 0
DWIDTH 10 0
BBX 10 20 0 -4
BITMAP
0000
0000
C300
C300
C300
C300
C300
C300
C300
C300
C300
C300
C300
C300
7E00
7E00
0000
0000
0000
0000
ENDCHAR
STARTCHAR U+0054
ENCODING 84
SWIDTH 1000 0
DWIDTH 10 0
BBX 10 20 0 -4
BITMAP
0000
0000
FF00
FF00
1800
1800
1800
1800
1800
1800
1800
1800
1800
1800
1800
1800
0000
0000
0000
0000
ENDCHAR
STARTCHAR U+0053
ENCODING 83
SWIDTH 1000 0
DWIDTH 10 0
BBX 10 20 0 -4
BITMAP
0000
0000
7E00
7E00
C300
C300
C000
C000
7E00
7E00
0300
0300
C300
C300
7E00
7E00
0000
0000
0000
0000
ENDCHAR
STARTCHAR U+0052
ENCODING 82
SWIDTH 1000 0
DWIDTH 10 0
BBX 10 20 0 -4
BITMAP
0000
0000
FE00
FE00
C300
C300
C300
C300
FE00
FE00
CC00
CC00
C600
C600
C300
C300
0000
0000
0000
0000
ENDCHAR
STARTCHAR U+0051
ENCODING 81
SWIDTH 1000 0
DWIDTH 10 0
BBX 10 20 0 -4
BITMAP
0000
0000
7E00
7E00
C300
C300
C300
C300
C300
C300
CF00
CF00
C600
C600
7F00
7F00
0000
0000
0000
0000
ENDCHAR
STARTCHAR U+0050
ENCODING 80
SWIDTH 1000 0
DWIDTH 10 0
BBX 10 20 0 -4
BITMAP
0000
0000
FE00
FE00
C300
C300
C300
C300
FE00
FE00
C000
C000
C000
C000
C000
C000
0000
0000
0000
0000
ENDCHAR
STARTCHAR U+004F
ENCODING 79
SWIDTH 1000 0
DWIDTH 10 0
BBX 10 20 0 -4
BITMAP
0000
0000
7E00
7E00
C300
C300
C300
C300
C300
C300
C300
C300
C300
C300
7E00
7E00
0000
0000
0000
0000
ENDCHAR
STARTCHAR U+004E
ENCODING 78
SWIDTH 1000 0
DWIDTH 10 0
BBX 10 20 0 -4
BITMAP
0000
0000
C300
C300
E300
E300
F300
F300
DB00
DB00
CF00
CF00
C700
C700
C300
C300
0000
0000
0000
0000
ENDCHAR
STARTCHAR U+004D
ENCODING 77
SWIDTH 1000 0
DWIDTH 10 0
BBX 10 20 0 -4
BITMAP
0000
0000
C300
C300
E700
E700
FF00
FF00
DB00
DB00
C300
C300
C300
C300
C300
C300
0000
0000
0000
0000
ENDCHAR
STARTCHAR U+004C
ENCODING 76
SWIDTH 1000 0
DWIDTH 10 0
BBX 10 20 0 -4
BITMAP
0000
0000
C000
C000
C000
C000
C000
C000
C000
C000
C000
C000
C000
C000
FF00
FF00
0000
0000
0000
0000
ENDCHAR
STARTCHAR U+004B
ENCODING 75
SWIDTH 1000 0
DWIDTH 10 0
BBX 10 20 0 -4
BITMAP
0000
0000
C300
C300
CE00
CE00
F800
F800
E000
E000
F800
F800
CE00
CE00
C300
C300
0000
0000
0000
0000
ENDCHAR
STARTCHAR U+004A
ENCODING 74
SWIDTH 1000 0
DWIDTH 10 0
BBX 10 20 0 -4
BITMAP
0000
0000
0F00
0F00
0600
0600
0600
0600
0600
0600
0600
0600
C600
C600
7C00
7C00
0000
0000
0000
0000
ENDCHAR
STARTCHAR U+0049
ENCODING 73
SWIDTH 1000 0
DWIDTH 10 0
BBX 10 20 0 -4
BITMAP
0000
0000
7E00
7E00
1800
1800
1800
1800
1800
1800
1800
1800
1800
1800
7E00
7E00
0000
0000
0000
0000
ENDCHAR
STARTCHAR U+0048
ENCODING 72
SWIDTH 1000 0
DWIDTH 10 0
BBX 10 20 0 -4
BITMAP
0000
0000
C300
C300
C300
C300
C300
C300
FF00
FF00
C300
C300
C300
C300
C300
C300
0000
0000
0000
0000
ENDCHAR
STARTCHAR U+0047
ENCODING 71
SWIDTH 1000 0
DWIDTH 10 0
BBX 10 20 0 -4
BITMAP
0000
0000
3E00
3E00
6300
6300
C000
C000
C000
C000
CF00
CF00
6300
6300
3E00
3E00
0000
0000
0000
0000
ENDCHAR
STARTCHAR U+0046
ENCODING 70
SWIDTH 1000 0
DWIDTH 10 0
BBX 10 20 0 -4
BITMAP
0000
0000
FF00
FF00
C000
C000
C000
C000
FC00
FC00
C000
C000
C000
C000
C000
C000
0000
0000
0000
0000
ENDCHAR
STARTCHAR U+0045
ENCODING 69
SWIDTH 1000 0
DWIDTH 10 0
BBX 10 20 0 -4
BITMAP
0000
0000
FF00
FF00
C000
C000
C000
C000
FC00
FC00
C000
C000
C000
C000
FF00
FF00
0000
0000
0000
0000
ENDCHAR
STARTCHAR U+0044
ENCODING 68
SWIDTH 1000 0
DWIDTH 10 0
BBX 10 20 0 -4
BITMAP
0000
0000
FC00
FC00
6600
6600
6300
6300
6300
6300
6300
6300
6600
6600
FC00
FC00
0000
0000
0000
0000
ENDCHAR
STARTCHAR U+0043
ENCODING 67
SWIDTH 1000 0
DWIDTH 10 0
BBX 10 20 0 -4
BITMAP
0000
0000
3E00
3E00
6300
6300
C000
C000
C000
C000
C000
C000
6300
6300
3E00
3E00
0000
0000
0000
0000
ENDCHAR
STARTCHAR U+0042
ENCODING 66
SWIDTH 1000 0
DWIDTH 10 0
BBX 10 20 0 -4
BITMAP
0000
0000
FE00
FE00
6300
6300
6300
6300
7E00
7E00
6300
6300
6300
6300
FE00
FE00
0000
0000
0000
0000
ENDCHAR
STARTCHAR U+0041
ENCODING 65
SWIDTH 1000 0
DWIDTH 10 0
BBX 10 20 0 -4
BITMAP
0000
0000
1800
1800
3C00
3C00
6600
6600
C300
C300
FF00
FF00
C300
C300
C300
C300
0000
0000
0000
0000
ENDCHAR
STARTCHAR U+0040
ENCODING 64
SWIDTH 1000 0
DWIDTH 10 0
BBX 10 20 0 -4
BITMAP
0000
0000
7E00
7E00
C300
C300
DF00
DF00
F700
F700
DF00
DF00
C000
C000
7E00
7E00
0000
0000
0000
0000
ENDCHAR
STARTCHAR U+003F
ENCODING 63
SWIDTH 1000 0
DWIDTH 10 0
BBX 10 20 0 -4
BITMAP
0000
0000
7E00
7E00
C300
C300
0E00
0E00
1800
1800
1800
1800
0000
0000
1800
1800
0000
0000
0000
0000
ENDCHAR
STARTCHAR U+003E
ENCODING 62
SWIDTH 1000 0
DWIDTH 10 0
BBX 10 20 0 -4
BITMAP
0000
0000
C000
C000
3000
3000
0C00
0C00
0300
0300
0C00
0C00
3000
3000
C000
C000
0000
0000
0000
0000
ENDCHAR
STARTCHAR U+003D
ENCODING 61
SWIDTH 1000 0
DWIDTH 10 0
BBX 10 20 0 -4
BITMAP
0000
0000
0000
0000
0000
0000
FF00
FF00
0000
0000
FF00
FF00
0000
0000
0000
0000
0000
0000
0000
0000
ENDCHAR
STARTCHAR U+003C
ENCODING 60
SWIDTH 1000 0
DWIDTH 10 0
BBX 10 20 0 -4
BITMAP
0000
0000
0300
0300
0C00
0C00
3000
3000
C000
C000
3000
3000
0C00
0C00
0300
0300
0000
0000
0000
0000
ENDCHAR
STARTCHAR U+003B
ENCODING 59
SWIDTH 1000 0
DWIDTH 10 0
BBX 10 20 0 -4
BITMAP
0000
0000
0000
0000
3800
3800
3800
3800
0000
0000
0000
0000
3800
3800
3000
3000
6000
6000
0000
0000
ENDCHAR
STARTCHAR U+003A
ENCODING 58
SWIDTH 1000 0
DWIDTH 10 0
BBX 10 20 0 -4
BITMAP
0000
0000
0000
0000
3800
3800
3800
3800
0000
0000
0000
0000
3800
3800
3800
3800
0000
0000
0000
0000
ENDCHAR
STARTCHAR U+0039
ENCODING 57
SWIDTH 1000 0
DWIDTH 10 0
BBX 10 20 0 -4
BITMAP
0000
0000
7E00
7E00
C300
C300
C700
C700
7F00
7F00
0300
0300
0600
0600
7C00
7C00
0000
0000
0000
0000
ENDCHAR
STARTCHAR U+0038
ENCODING 56
SWIDTH 1000 0
DWIDTH 10 0
BBX 10 20 0 -4
BITMAP
0000
0000
7E00
7E00
C300
C300
C300
C300
7E00
7E00
C300
C300
C300
C300
7E00
7E00
0000
0000
0000
0000
ENDCHAR
STARTCHAR U+0037
ENCODING 55
SWIDTH 1000 0
DWIDTH 10 0
BBX 10 20 0 -4
BITMAP
0000
0000
FF00
FF00
0300
0300
0600
0600
0C00
0C00
1800
1800
3000
3000
3000
3000
0000
0000
0000
0000
ENDCHAR
STARTCHAR U+0036
ENCODING 54
SWIDTH 1000 0
DWIDTH 10 0
BBX 10 20 0 -4
BITMAP
0000
0000
3E00
3E00
6000
6000
C000
C000
FE00
FE00
E300
E300
C300
C300
7E00
7E00
0000
0000
0000
0000
ENDCHAR
STARTCHAR U+0035
ENCODING 53
SWIDTH 1000 0
DWIDTH 10 0
BBX 10 20 0 -4
BITMAP
0000
0000
FF00
FF00
C000
C000
FE00
FE00
E300
E300
0300
0300
C300
C300
7E00
7E00
0000
0000
0000
0000
ENDCHAR
STARTCHAR U+0034
ENCODING 52
SWIDTH 1000 0
DWIDTH 10 0
BBX 10 20 0 -4
BITMAP
0000
0000
0C00
0C00
1C00
1C00
3C00
3C00
6C00
6C00
FF00
FF00
0C00
0C00
0C00
0C00
0000
0000
0000
0000
ENDCHAR
STARTCHAR U+0033
ENCODING 51
SWIDTH 1000 0
DWIDTH 10 0
BBX 10 20 0 -4
BITMAP
0000
0000
FF00
FF00
0600
0600
0C00
0C00
1E00
1E00
0300
0300
C300
C300
7E00
7E00
0000
0000
0000
0000
ENDCHAR
STARTCHAR U+0032
ENCODING 50
SWIDTH 1000 0
DWIDTH 10 0
BBX 10 20 0 -4
BITMAP
0000
0000
7E00
7E00
C300
C300
0300
0300
1E00
1E00
7000
7000
C000
C000
FF00
FF00
0000
0000
0000
0000
ENDCHAR
STARTCHAR U+0031
ENCODING 49
SWIDTH 1000 0
DWIDTH 10 0
BBX 10 20 0 -4
BITMAP
0000
0000
1800
1800
3800
3800
7800
7800
1800
1800
1800
1800
1800
1800
7E00
7E00
0000
0000
0000
0000
ENDCHAR
STARTCHAR U+0030
ENCODING 48
SWIDTH 1000 0
DWIDTH 10 0
BBX 10 20 0 -4
BITMAP
0000
0000
3C00
3C00
6600
6600
C300
C300
C300
C300
C300
C300
6600
6600
3C00
3C00
0000
0000
0000
0000
ENDCHAR
STARTCHAR U+002F
ENCODING 47
SWIDTH 1000 0
DWIDTH 10 0
BBX 10 20 0 -4
BITMAP
0000
0000
0300
0300
0600
0600
0C00
0C00
1800
1800
3000
3000
6000
6000
C000
C000
0000
0000
0000
0000
ENDCHAR
STARTCHAR U+002E
ENCODING 46
SWIDTH 1000 0
DWIDTH 10 0
BBX 10 20 0 -4
BITMAP
0000
0000
0000
0000
0000
0000
0000
0000
0000
0000
0000
0000
3800
3800
3800
3800
0000
0000
0000
0000
ENDCHAR
STARTCHAR U+002D
ENCODING 45
SWIDTH 1000 0
DWIDTH 10 0
BBX 10 20 0 -4
BITMAP
0000
0000
0000
0000
0000
0000
0000
0000
FF00
FF00
0000
0000
0000
0000
0000
0000
0000
0000
0000
0000
ENDCHAR
STARTCHAR U+002C
ENCODING 44
SWIDTH 1000 0
DWIDTH 10 0
BBX 10 20 0 -4
BITMAP
0000
0000
0000
0000
0000
0000
0000
0000
0000
0000
0000
0000
3800
3800
3000
3000
6000
6000
0000
0000
ENDCHAR
STARTCHAR U+002B
ENCODING 43
SWIDTH 1000 0
DWIDTH 10 0
BBX 10 20 0 -4
BITMAP
0000
0000
0000
0000
1800
1800
1800
1800
FF00
FF00
1800
1800
1800
1800
0000
0000
0000
0000
0000
0000
ENDCHAR
STARTCHAR U+002A
ENCODING 42
SWIDTH 1000 0
DWIDTH 10 0
BBX 10 20 0 -4
BITMAP
0000
0000
0000
0000
6600
6600
3C00
3C00
FF00
FF00
3C00
3C00
6600
6600
0000
0000
0000
0000
0000
0000
ENDCHAR
STARTCHAR U+0029
ENCODING 41
SWIDTH 1000 0
DWIDTH 10 0
BBX 10 20 0 -4
BITMAP
0000
0000
3000
3000
1800
1800
0C00
0C00
0C00
0C00
0C00
0C00
1800
1800
3000
3000
0000
0000
0000
0000
ENDCHAR
STARTCHAR U+0028
ENCODING 40
SWIDTH 1000 0
DWIDTH 10 0
BBX 10 20 0 -4
BITMAP
0000
0000
0C00
0C00
1800
1800
3000
3000
3000
3000
3000
3000
1800
1800
0C00
0C00
0000
0000
0000
0000
ENDCHAR
STARTCHAR U+0027
ENCODING 39
SWIDTH 1000 0
DWIDTH 10 0
BBX 10 20 0 -4
BITMAP
0000
0000
1C00
1C00
1800
1800
3000
3000
0000
0000
0000
0000
0000
0000
0000
0000
0000
0000
0000
0000
ENDCHAR
STARTCHAR U+0026
ENCODING 38
SWIDTH 1000 0
DWIDTH 10 0
BBX 10 20 0 -4
BITMAP
0000
0000
7800
7800
CC00
CC00
CC00
CC00
7800
7800
CF00
CF00
C600
C600
7F00
7F00
0000
0000
0000
0000
ENDCHAR
STARTCHAR U+0025
ENCODING 37
SWIDTH 1000 0
DWIDTH 10 0
BBX 10 20 0 -4
BITMAP
0000
0000
6300
6300
F600
F600
6C00
6C00
1800
1800
3600
3600
6F00
6F00
C600
C600
0000
0000
0000
0000
ENDCHAR
STARTCHAR U+0024
ENCODING 36
SWIDTH 1000 0
DWIDTH 10 0
BBX 10 20 0 -4
BITMAP
0000
0000
1800
1800
7E00
7E00
D800
D800
7E00
7E00
1B00
1B00
7E00
7E00
1800
1800
0000
0000
0000
0000
ENDCHAR
STARTCHAR U+0023
ENCODING 35
SWIDTH 1000 0
DWIDTH 10 0
BBX 10 20 0 -4
BITMAP
0000
0000
6C00
6C00
6C00
6C00
FE00
FE00
6C00
6C00
FE00
FE00
6C00
6C00
6C00
6C00
0000
0000
0000
0000
ENDCHAR
STARTCHAR U+0022
ENCODING 34
SWIDTH 1000 0
DWIDTH 10 0
BBX 10 20 0 -4
BITMAP
0000
0000
6C00
6C00
6C00
6C00
6C00
6C00
0000
0000
0000
0000
0000
0000
0000
0000
0000
0000
0000
0000
ENDCHAR
STARTCHAR U+0021
ENCODING 33
SWIDTH 1000 0
DWIDTH 10 0
BBX 10 20 0 -4
BITMAP
0000
0000
1800
1800
1800
1800
1800
1800
1800
1800
1800
1800
0000
0000
1800
1800
0000
0000
0000
0000
ENDCHAR
STARTCHAR U+2E2E
ENCODING 11822
SWIDTH 1000 0
DWIDTH 10 0
BBX 10 20 0 -4
BITMAP
0000
0000
7E00
7E00
C300
C300
7000
7000
1800
1800
1800
1800
0000
0000
1800
1800
0000
0000
0000
0000
ENDCHAR
STARTCHAR U+00b7
ENCODING 183
SWIDTH 1000 0
DWIDTH 10 0
BBX 10 20 0 -4
BITMAP
0000
0000
0000
0000
0000
0000
0000
0000
1800
1800
0000
0000
0000
0000
0000
0000
0000
0000
0000
0000
ENDCHAR
STARTCHAR U+00A3
ENCODING 163
SWIDTH 1000 0
DWIDTH 10 0
BBX 10 20 0 -4
BITMAP
0000
0000
1E00
1E00
3300
3300
3000
3000
FC00
FC00
3000
3000
7C00
7C00
F700
F700
6000
6000
0000
0000
ENDCHAR
STARTCHAR U+2260
ENCODING 8800
SWIDTH 1000 0
DWIDTH 10 0
BBX 10 20 0 -4
BITMAP
0000
0000
0300
0300
0600
0600
FF00
FF00
1800
1800
FF00
FF00
6000
6000
C000
C000
0000
0000
0000
0000
ENDCHAR
STARTCHAR U+03C0
ENCODING 960
SWIDTH 1000 0
DWIDTH 10 0
BBX 10 20 0 -4
BITMAP
0000
0000
0000
0000
0000
0000
FF00
FF00
3600
3600
3600
3600
3600
3600
6600
6600
0000
0000
0000
0000
ENDCHAR
STARTCHAR U+2265
ENCODING 8805
SWIDTH 1000 0
DWIDTH 10 0
BBX 10 20 0 -4
BITMAP
0000
0000
C000
C000
3000
3000
0C00
0C00
0300
0300
0C00
0C00
3000
3000
C000
C000
FF00
FF00
0000
0000
ENDCHAR
STARTCHAR U+2264
ENCODING 8804
SWIDTH 1000 0
DWIDTH 10 0
BBX 10 20 0 -4
BITMAP
0000
0000
0300
0300
0C00
0C00
3000
3000
C000
C000
3000
3000
0C00
0C00
0300
0300
FF00
FF00
0000
0000
ENDCHAR
STARTCHAR U+2502
ENCODING 9474
SWIDTH 1000 0
DWIDTH 10 0
BBX 10 20 0 -4
BITMAP
1800
1800
1800
1800
1800
1800
1800
1800
1800
1800
1800
1800
1800
1800
1800
1800
1800
1800
1800
1800
ENDCHAR
STARTCHAR U+252C
ENCODING 9516
SWIDTH 1000 0
DWIDTH 10 0
BBX 10 20 0 -4
BITMAP
0000
0000
0000
0000
0000
0000
0000
0000
FFC0
FFC0
1800
1800
1800
1800
1800
1800
1800
1800
1800
1800
ENDCHAR
STARTCHAR U+2534
ENCODING 9524
SWIDTH 1000 0
DWIDTH 10 0
BBX 10 20 0 -4
BITMAP
1800
1800
1800
1800
1800
1800
1800
1800
FFC0
FFC0
0000
0000
0000
0000
0000
0000
0000
0000
0000
0000
ENDCHAR
STARTCHAR U+2524
ENCODING 9508
SWIDTH 1000 0
DWIDTH 10 0
BBX 10 20 0 -4
BITMAP
1800
1800
1800
1800
1800
1800
1800
1800
F800
F800
1800
1800
1800
1800
1800
1800
1800
1800
1800
1800
ENDCHAR
STARTCHAR U+251C
ENCODING 9500
SWIDTH 1000 0
DWIDTH 10 0
BBX 10 20 0 -4
BITMAP
1800
1800
1800
1800
1800
1800
1800
1800
1FC0
1FC0
1800
1800
1800
1800
1800
1800
1800
1800
1800
1800
ENDCHAR
STARTCHAR U+23BD
ENCODING 9149
SWIDTH 1000 0
DWIDTH 10 0
BBX 10 20 0 -4
BITMAP
0000
0000
0000
0000
0000
0000
0000
0000
0000
0000
0000
0000
0000
0000
0000
0000
FFC0
FFC0
0000
0000
ENDCHAR
STARTCHAR U+23BC
ENCODING 9148
SWIDTH 1000 0
DWIDTH 10 0
BBX 10 20 0 -4
BITMAP
0000
0000
0000
0000
0000
0000
0000
0000
0000
0000
0000
0000
FFC0
FFC0
0000
0000
0000
0000
0000
0000
ENDCHAR
STARTCHAR U+2500
ENCODING 9472
SWIDTH 1000 0
DWIDTH 10 0
BBX 10 20 0 -4
BITMAP
0000
0000
0000
0000
0000
0000
0000
0000
FFC0
FFC0
0000
0000
0000
0000
0000
0000
0000
0000
0000
0000
ENDCHAR
STARTCHAR U+23BB
ENCODING 9147
SWIDTH 1000 0
DWIDTH 10 0
BBX 10 20 0 -4
BITMAP
0000
0000
0000
0000
FFC0
FFC0
0000
0000
0000
0000
0000
0000
0000
0000
0000
0000
0000
0000
0000
0000
ENDCHAR
STARTCHAR U+23BA
ENCODING 9146
SWIDTH 1000 0
DWIDTH 10 0
BBX 10 20 0 -4
BITMAP
FFC0
FFC0
0000
0000
0000
0000
0000
0000
0000
0000
0000
0000
0000
0000
0000
0000
0000
0000
0000
0000
ENDCHAR
STARTCHAR U+253C
ENCODING 9532
SWIDTH 1000 0
DWIDTH 10 0
BBX 10 20 0 -4
BITMAP
1800
1800
1800
1800
1800
1800
1800
1800
FFC0
FFC0
1800
1800
1800
1800
1800
1800
1800
1800
1800
1800
ENDCHAR
STARTCHAR U+2514
ENCODING 9492
SWIDTH 1000 0
DWIDTH 10 0
BBX 10 20 0 -4
BITMAP
1800
1800
1800
1800
1800
1800
1800
1800
1FC0
1FC0
0000
0000
0000
0000
0000
0000
0000
0000
0000
0000
ENDCHAR
STARTCHAR U+250C
ENCODING 9484
SWIDTH 1000 0
DWIDTH 10 0
BBX 10 20 0 -4
BITMAP
0000
0000
0000
0000
0000
0000
0000
0000
1FC0
1FC0
1800
1800
1800
1800
1800
1800
1800
1800
1800
1800
ENDCHAR
STARTCHAR U+2510
ENCODING 9488
SWIDTH 1000 0
DWIDTH 10 0
BBX 10 20 0 -4
BITMAP
0000
0000
0000
0000
0000
0000
0000
0000
F800
F800
1800
1800
1800
1800
1800
1800
1800
1800
1800
1800
ENDCHAR
STARTCHAR U+2518
ENCODING 9496
SWIDTH 1000 0
DWIDTH 10 0
BBX 10 20 0 -4
BITMAP
1800
1800
1800
1800
1800
1800
1800
1800
F800
F800
0000
0000
0000
0000
0000
0000
0000
0000
0000
0000
ENDCHAR
STARTCHAR U+240B
ENCODING 9227
SWIDTH 1000 0
DWIDTH 10 0
BBX 10 20 0 -4
BITMAP
0000
0000
CC00
CC00
CC00
CC00
7800
7800
7800
7800
3F00
3F00
0C00
0C00
0C00
0C00
0C00
0C00
0C00
0C00
ENDCHAR
STARTCHAR U+2424
ENCODING 9252
SWIDTH 1000 0
DWIDTH 10 0
BBX 10 20 0 -4
BITMAP
0000
0000
CC00
CC00
EC00
EC00
FC00
FC00
DC00
DC00
DC00
DC00
1800
1800
1800
1800
1800
1800
1F00
1F00
ENDCHAR
STARTCHAR U+00B1
ENCODING 177
SWIDTH 1000 0
DWIDTH 10 0
BBX 10 20 0 -4
BITMAP
0000
0000
0000
0000
1800
1800
1800
1800
FF00
FF00
1800
1800
1800
1800
FF00
FF00
0000
0000
0000
0000
ENDCHAR
STARTCHAR U+00B0
ENCODING 176
SWIDTH 1000 0
DWIDTH 10 0
BBX 10 20 0 -4
BITMAP
0000
0000
3C00
3C00
6600
6600
3C00
3C00
0000
0000
0000
0000
0000
0000
0000
0000
0000
0000
0000
0000
ENDCHAR
STARTCHAR U+240A
ENCODING 9226
SWIDTH 1000 0
DWIDTH 10 0
BBX 10 20 0 -4
BITMAP
0000
0000
C000
C000
C000
C000
C000
C000
C000
C000
FF00
FF00
1800
1800
1E00
1E00
1800
1800
1800
1800
ENDCHAR
STARTCHAR U+240D
ENCODING 9229
SWIDTH 1000 0
DWIDTH 10 0
BBX 10 20 0 -4
BITMAP
0000
0000
7800
7800
C000
C000
C000
C000
C000
C000
7E00
7E00
1B00
1B00
1E00
1E00
1B00
1B00
1B00
1B00
ENDCHAR
STARTCHAR U+240C
ENCODING 9228
SWIDTH 1000 0
DWIDTH 10 0
BBX 10 20 0 -4
BITMAP
0000
0000
F800
F800
C000
C000
F000
F000
C000
C000
DF00
DF00
1800
1800
1E00
1E00
1800
1800
1800
1800
ENDCHAR
STARTCHAR U+2409
ENCODING 9225
SWIDTH 1000 0
DWIDTH 10 0
BBX 10 20 0 -4
BITMAP
0000
0000
D800
D800
D800
D800
F800
F800
D800
D800
FF00
FF00
0C00
0C00
0C00
0C00
0C00
0C00
0C00
0C00
ENDCHAR
STARTCHAR U+2592
ENCODING 9618
SWIDTH 1000 0
DWIDTH 10 0
BBX 10 20 0 -4
BITMAP
0000
0000
DB00
DB00
6600
6600
DB00
DB00
6600
6600
DB00
DB00
6600
6600
DB00
DB00
0000
0000
0000
0000
ENDCHAR
STARTCHAR U+25C6
ENCODING 9670
SWIDTH 1000 0
DWIDTH 10 0
BBX 10 20 0 -4
BITMAP
0000
0000
1800
1800
3C00
3C00
7E00
7E00
FF00
FF00
7E00
7E00
3C00
3C00
1800
1800
0000
0000
0000
0000
ENDCHAR
STARTCHAR U+0020
ENCODING 32
SWIDTH 1000 0
DWIDTH 10 0
BBX 10 20 0 -4
BITMAP
0000
0000
0000
0000
0000
0000
0000
0000
0000
0000
0000
0000
0000
0000
0000
0000
0000
0000
0000
0000
ENDCHAR
ENDFONT
